<svg id="Layer_1" data-name="Layer 1" xmlns="http://www.w3.org/2000/svg" viewBox="0 0 420.41 206.74"><defs><style>.cls-1,.cls-2{fill:#231f20;}.cls-1{fill-rule:evenodd;}</style></defs><title>BlackEvolutionLogo</title><polygon class="cls-1" points="76.39 94.96 70.78 97.16 76.39 99.37 82 97.16 76.39 94.96"/><polygon class="cls-1" points="90.87 106.79 102.8 111.47 76.39 121.84 49.97 111.47 61.9 106.79 54.08 103.72 34.32 111.47 76.39 127.98 118.45 111.47 98.69 103.72 90.87 106.79"/><polygon class="cls-1" points="76.39 75.97 70.78 78.17 76.39 80.37 82 78.17 76.39 75.97"/><polygon class="cls-1" points="90.87 87.8 102.8 92.48 76.39 102.85 49.97 92.48 61.9 87.8 54.08 84.73 34.32 92.48 76.39 108.99 118.45 92.48 98.69 84.73 90.87 87.8"/><polygon class="cls-1" points="76.39 56.98 70.78 59.18 76.39 61.38 82 59.18 76.39 56.98"/><polygon class="cls-1" points="90.87 68.8 102.8 73.49 76.39 83.85 49.97 73.49 61.9 68.8 54.08 65.73 34.32 73.49 76.39 90 118.45 73.49 98.69 65.73 90.87 68.8"/><polygon class="cls-1" points="76.39 37.98 70.78 40.19 76.39 42.39 82 40.19 76.39 37.98"/><polygon class="cls-1" points="90.87 49.81 102.8 54.49 76.39 64.86 49.97 54.49 61.9 49.81 54.08 46.74 34.32 54.49 76.39 71.01 118.45 54.49 98.69 46.74 90.87 49.81"/><path class="cls-1" d="M56.24,26.24L82.66,36.61l26.41-10.37L82.66,15.87,56.24,26.24h0ZM82.66,42.75L40.59,26.24,82.66,9.73l42.06,16.51Z" transform="translate(-6.27 -9.73)"/><polygon class="cls-1" points="90.87 30.82 102.8 35.5 76.39 45.87 49.97 35.5 61.9 30.82 54.08 27.75 34.32 35.5 76.39 52.01 118.45 35.5 98.69 27.75 90.87 30.82"/><polygon class="cls-1" points="76.39 18.99 70.78 21.19 76.39 23.4 82 21.19 76.39 18.99"/><polygon class="cls-1" points="150.35 123.08 134.05 123.08 134.05 93.3 150.35 93.3 150.35 98.81 139.69 98.81 139.69 104.25 150.35 104.25 150.35 109.68 139.69 109.68 139.69 117.52 150.35 117.52 150.35 123.08"/><polygon class="cls-1" points="178.55 93.3 167.82 123.08 162.35 123.08 151.79 93.3 157.63 93.3 165.13 114.45 172.72 93.3 178.55 93.3"/><path class="cls-1" d="M217.34,118a15.16,15.16,0,0,1-4.44,11A14.69,14.69,0,0,1,202,133.56,15,15,0,0,1,190.89,129a15.19,15.19,0,0,1-4.5-11.12,15.57,15.57,0,0,1,2-7.84,15.61,15.61,0,0,1,13.49-7.79,14.69,14.69,0,0,1,11,4.64A15.38,15.38,0,0,1,217.34,118h0Zm-5.68,0a10,10,0,0,0-2.78-7.16,9.79,9.79,0,0,0-14.08,0,10.16,10.16,0,0,0-2.72,7.22,9.54,9.54,0,0,0,3.55,7.83,9.73,9.73,0,0,0,6.33,2.25,9.18,9.18,0,0,0,7-3A10,10,0,0,0,211.66,118Z" transform="translate(-6.27 -9.73)"/><polygon class="cls-1" points="228.81 123.08 214.87 123.08 214.87 93.3 220.55 93.3 220.55 117.69 228.81 117.69 228.81 123.08"/><path class="cls-1" d="M257.84,120.78a33.26,33.26,0,0,1-.26,5.1,9.09,9.09,0,0,1-2.17,4.49,9.69,9.69,0,0,1-7.65,3.18,11.11,11.11,0,0,1-5.34-1.29,8.42,8.42,0,0,1-3.75-3.94q-1-2.22-1-7.55V103h5.68v19.3a12.6,12.6,0,0,0,.24,2.9,3.55,3.55,0,0,0,1.65,2.27,4.43,4.43,0,0,0,2.42.63c2.1,0,3.46-.81,4.11-2.45a13.21,13.21,0,0,0,.41-4.05V103h5.68v17.75Z" transform="translate(-6.27 -9.73)"/><polygon class="cls-1" points="270.07 98.85 264.68 98.85 264.68 123.08 258.95 123.08 258.95 98.85 253.69 98.85 253.69 93.3 270.07 93.3 270.07 98.85"/><rect class="cls-2" x="272.05" y="93.3" width="5.64" height="29.78"/><path class="cls-1" d="M318.29,118a15.16,15.16,0,0,1-4.44,11,14.69,14.69,0,0,1-10.93,4.52A15,15,0,0,1,291.84,129a15.18,15.18,0,0,1-4.5-11.12,15.56,15.56,0,0,1,2-7.84,15.61,15.61,0,0,1,13.49-7.79,14.69,14.69,0,0,1,11,4.64A15.37,15.37,0,0,1,318.29,118h0Zm-5.68,0a10,10,0,0,0-2.78-7.16,9.79,9.79,0,0,0-14.08,0A10.16,10.16,0,0,0,293,118a9.54,9.54,0,0,0,3.55,7.83,9.72,9.72,0,0,0,6.33,2.25,9.18,9.18,0,0,0,7-3A10,10,0,0,0,312.61,118Z" transform="translate(-6.27 -9.73)"/><polygon class="cls-1" points="339.76 123.08 334.29 123.08 321.51 103.54 321.51 123.08 315.82 123.08 315.82 93.3 321.26 93.3 334.08 112.92 334.08 93.3 339.76 93.3 339.76 123.08"/><path class="cls-1" d="M30.52,186.22V145.07H60.81c7.1,0,11.35.09,12.76,0.23a9.43,9.43,0,0,1,4.06,1.4,7.26,7.26,0,0,1,3.22,3.91,25.58,25.58,0,0,1,.87,7.83,28.52,28.52,0,0,1-.55,6.61,6.34,6.34,0,0,1-2.09,3.37,10.24,10.24,0,0,1-5,1.87c2.62,0.21,4.51,1,5.66,2.26A5.78,5.78,0,0,1,81,175.4a57,57,0,0,1,.27,7v3.81H69V184a31.44,31.44,0,0,0-.26-4.88,4.53,4.53,0,0,0-.95-2.24,3.3,3.3,0,0,0-1.92-.92,40.45,40.45,0,0,0-5.11-.19H43v10.42H30.52ZM43,165.49H60.69c3.05-.06,4.88-0.11,5.47-0.16a3.29,3.29,0,0,0,1.51-.47,2.68,2.68,0,0,0,1.14-1.51,10.73,10.73,0,0,0,.33-3.06,9.23,9.23,0,0,0-.37-3,2.57,2.57,0,0,0-1.31-1.44,4.43,4.43,0,0,0-1.57-.36c-0.61,0-2.35-.07-5.23-0.09H43v10.12Z" transform="translate(-6.27 -9.73)"/><path class="cls-1" d="M117.21,144.51a166.42,166.42,0,0,1,18.31.66q7.2,1,8.83,6.84,1.11,4,1.11,13.64t-1.11,13.68q-1.64,5.86-8.83,6.84a164.74,164.74,0,0,1-18.19.66,168,168,0,0,1-18.44-.66q-7.2-1-8.83-6.84Q89,175.3,89,165.42,89,156,90.06,152q1.63-5.86,8.83-6.84a165.85,165.85,0,0,1,18.31-.66h0Zm0,10.67q-10,0-12,.52a4.09,4.09,0,0,0-3,2.7q-0.73,2.1-.72,8.34a27,27,0,0,0,.39,5.46c0.5,2.1,2,3.29,4.55,3.6a105.46,105.46,0,0,0,10.88.36c5,0,8.4-.09,10.07-0.27a7.37,7.37,0,0,0,3.7-1.21,4.28,4.28,0,0,0,1.48-2.49,26.34,26.34,0,0,0,.39-5.39,51.38,51.38,0,0,0-.3-6.52,7,7,0,0,0-1.09-3.14,4.66,4.66,0,0,0-3.28-1.65A110,110,0,0,0,117.24,155.19Z" transform="translate(-6.27 -9.73)"/><path class="cls-1" d="M181.41,144.51a166.33,166.33,0,0,1,18.31.66q7.2,1,8.83,6.84,1.11,4,1.11,13.64t-1.11,13.68q-1.63,5.86-8.83,6.84a164.67,164.67,0,0,1-18.19.66,168.05,168.05,0,0,1-18.44-.66q-7.2-1-8.83-6.84-1.11-4-1.11-13.92,0-9.4,1.11-13.41,1.63-5.86,8.83-6.84a165.87,165.87,0,0,1,18.31-.66h0Zm0,10.67q-10,0-12,.52a4.09,4.09,0,0,0-3,2.7q-0.73,2.1-.72,8.34a27.06,27.06,0,0,0,.39,5.46c0.5,2.1,2,3.29,4.55,3.6a105.49,105.49,0,0,0,10.88.36q7.56,0,10.07-.27a7.37,7.37,0,0,0,3.7-1.21,4.27,4.27,0,0,0,1.48-2.49,26.34,26.34,0,0,0,.39-5.39,51.71,51.71,0,0,0-.3-6.52,7,7,0,0,0-1.09-3.14,4.67,4.67,0,0,0-3.28-1.65A110,110,0,0,0,181.44,155.19Z" transform="translate(-6.27 -9.73)"/><polygon class="cls-1" points="211.96 135.34 255.39 135.34 255.39 145.02 224.48 145.02 224.48 152.8 253.91 152.8 253.91 162.24 224.48 162.24 224.48 176.49 211.96 176.49 211.96 135.34"/><rect class="cls-2" x="261.88" y="135.34" width="13.14" height="41.15"/><polygon class="cls-1" points="284.39 135.34 306.36 135.34 327.91 166.06 329.2 166.06 328.89 135.34 341.64 135.34 341.64 176.49 319.86 176.49 298.22 145.77 296.86 145.77 297.14 176.49 284.39 176.49 284.39 135.34"/><path class="cls-1" d="M382.23,162.9h28.64c0,0.66,0,1,0,1.11,0,5.81-.16,10.19-0.45,13.12q-0.73,7.11-8.06,8.62a52.71,52.71,0,0,1-7.24.86q-4.09.23-12.45,0.23a133.34,133.34,0,0,1-15-.58,16.23,16.23,0,0,1-7-2.28,7.83,7.83,0,0,1-2.68-3,14.74,14.74,0,0,1-1.29-4.85,108.28,108.28,0,0,1-.36-11.08c0-3.75.1-6.59,0.3-8.49a20.4,20.4,0,0,1,1.17-5.12q1.79-4.76,7.56-5.79,6.32-1.11,19.42-1.11,7.77,0,12.29.39a35.71,35.71,0,0,1,7.43,1.29,7.83,7.83,0,0,1,5.72,6.37,36.65,36.65,0,0,1,.51,6.69H398.32a10,10,0,0,0-.21-2.32,1.93,1.93,0,0,0-.75-1q-1.05-.74-4.4-0.92c-2.11-.11-5.15-0.17-9.15-0.17q-6.49,0-9.29.3a8,8,0,0,0-3.81,1.11,4.53,4.53,0,0,0-1.39,2.74,40.39,40.39,0,0,0-.36,6.53,48.86,48.86,0,0,0,.36,7.25,4.65,4.65,0,0,0,1.39,2.89,4.89,4.89,0,0,0,2.66,1c1.1,0.11,4.54.21,10.36,0.29s9.15-.09,10.38-0.16a9.55,9.55,0,0,0,2.94-.56,2.31,2.31,0,0,0,1.28-1.27,7.08,7.08,0,0,0,.38-2.66c0-.19,0-0.57,0-1.14H382.23v-8.2Z" transform="translate(-6.27 -9.73)"/><polygon class="cls-1" points="6.69 195.44 3.97 195.44 3.97 206.44 2.73 206.44 2.73 195.44 0 195.44 0 194.25 6.69 194.25 6.69 195.44"/><polygon class="cls-1" points="17.07 206.44 15.85 206.44 15.85 200.56 9.63 200.56 9.63 206.44 8.41 206.44 8.41 194.25 9.63 194.25 9.63 199.36 15.85 199.36 15.85 194.25 17.07 194.25 17.07 206.44"/><polygon class="cls-1" points="27.02 195.46 21.25 195.46 21.25 199.24 26.96 199.24 26.96 200.45 21.25 200.45 21.25 205.23 26.96 205.23 26.96 206.44 20.04 206.44 20.04 194.25 27.02 194.25 27.02 195.46"/><polygon class="cls-1" points="44.37 206.44 44.08 206.44 36.05 197.22 36.05 206.44 34.8 206.44 34.8 194.25 35.07 194.25 43.16 203.59 43.16 194.25 44.37 194.25 44.37 206.44"/><polygon class="cls-1" points="54.32 195.46 48.55 195.46 48.55 199.24 54.27 199.24 54.27 200.45 48.55 200.45 48.55 205.23 54.27 205.23 54.27 206.44 47.35 206.44 47.35 194.25 54.32 194.25 54.32 195.46"/><polygon class="cls-1" points="64.73 206.44 63.3 206.44 60.14 201.32 56.95 206.44 55.53 206.44 59.42 200.16 55.8 194.25 57.22 194.25 60.14 199.01 63.08 194.25 64.49 194.25 60.86 200.16 64.73 206.44"/><polygon class="cls-1" points="72.24 195.44 69.53 195.44 69.53 206.44 68.29 206.44 68.29 195.44 65.56 195.44 65.56 194.25 72.24 194.25 72.24 195.44"/><path class="cls-1" d="M98.4,210.31a6.17,6.17,0,0,1-1.67,4.49,6,6,0,0,1-4.46,1.67,6.69,6.69,0,0,1-5.36-2.3,6.12,6.12,0,0,1-1.51-4.1,6.28,6.28,0,0,1,.87-3.22,6.19,6.19,0,0,1,2.39-2.33,7,7,0,0,1,3.43-.84A7.93,7.93,0,0,1,97.69,206l-0.95.89a6.43,6.43,0,0,0-4.6-2,5.57,5.57,0,0,0-2.71.7,5.06,5.06,0,0,0-2,1.91,5,5,0,0,0,0,5.19,5.32,5.32,0,0,0,2,1.91,5.87,5.87,0,0,0,2.86.71,5,5,0,0,0,3.12-1A4.11,4.11,0,0,0,97,211.5h-3.9v-1.19H98.4Z" transform="translate(-6.27 -9.73)"/><polygon class="cls-1" points="101.43 195.46 95.66 195.46 95.66 199.24 101.38 199.24 101.38 200.45 95.66 200.45 95.66 205.23 101.38 205.23 101.38 206.44 94.46 206.44 94.46 194.25 101.43 194.25 101.43 195.46"/><polygon class="cls-1" points="113.13 206.44 112.84 206.44 104.81 197.22 104.81 206.44 103.56 206.44 103.56 194.25 103.83 194.25 111.92 203.59 111.92 194.25 113.13 194.25 113.13 206.44"/><polygon class="cls-1" points="123.08 195.46 117.31 195.46 117.31 199.24 123.03 199.24 123.03 200.45 117.31 200.45 117.31 205.23 123.03 205.23 123.03 206.44 116.11 206.44 116.11 194.25 123.08 194.25 123.08 195.46"/><path class="cls-1" d="M139.33,216.17h-1.49l-4.41-5.67h-0.7v5.67h-1.2V204H134a15,15,0,0,1,2.75.17,3,3,0,0,1,2.45,3.07,2.88,2.88,0,0,1-1.82,2.88,6.18,6.18,0,0,1-2.42.4l4.41,5.67h0Zm-1.43-8.94a2,2,0,0,0-.32-1.1,1.83,1.83,0,0,0-.88-0.72,5.43,5.43,0,0,0-1.81-.22h-2.16v4.12l2.11,0c1.4,0,2.31-.31,2.74-1A2,2,0,0,0,137.9,207.22Z" transform="translate(-6.27 -9.73)"/><path class="cls-1" d="M152.43,216.17h-1.31l-1.91-4H144l-1.91,4h-1.36L146.44,204h0.3l5.69,12.18h0ZM148.67,211l-2.07-4.41L144.5,211h4.17Z" transform="translate(-6.27 -9.73)"/><polygon class="cls-1" points="153.52 195.44 150.81 195.44 150.81 206.44 149.57 206.44 149.57 195.44 146.84 195.44 146.84 194.25 153.52 194.25 153.52 195.44"/><rect class="cls-2" x="155.12" y="194.25" width="1.2" height="12.18"/><path class="cls-1" d="M177.67,210.07a6.33,6.33,0,0,1-6.4,6.4,6.29,6.29,0,0,1-4.56-1.83,6.07,6.07,0,0,1-1.87-4.51,6.55,6.55,0,0,1,.84-3.24,6.26,6.26,0,0,1,5.5-3.21,6.37,6.37,0,0,1,4.61,1.81,6.15,6.15,0,0,1,1.88,4.58h0Zm-1.26,0a4.85,4.85,0,0,0-2.56-4.49,5.19,5.19,0,0,0-2.61-.7,5.19,5.19,0,0,0-4.46,2.6,5.27,5.27,0,0,0-.68,2.66,5,5,0,0,0,1.48,3.65,4.92,4.92,0,0,0,3.65,1.49,5.27,5.27,0,0,0,2.62-.68,4.89,4.89,0,0,0,1.88-1.87A5.32,5.32,0,0,0,176.42,210.07Z" transform="translate(-6.27 -9.73)"/><polygon class="cls-1" points="183.44 206.44 183.15 206.44 175.12 197.22 175.12 206.44 173.87 206.44 173.87 194.25 174.14 194.25 182.24 203.59 182.24 194.25 183.44 194.25 183.44 206.44"/><path class="cls-1" d="M210.63,210.07a6.32,6.32,0,0,1-6.39,6.4,6.29,6.29,0,0,1-4.56-1.83,6.07,6.07,0,0,1-1.87-4.51,6.55,6.55,0,0,1,.84-3.24,6.26,6.26,0,0,1,5.5-3.21,6.36,6.36,0,0,1,4.61,1.81,6.15,6.15,0,0,1,1.88,4.58h0Zm-1.25,0a4.85,4.85,0,0,0-2.56-4.49,5.19,5.19,0,0,0-2.61-.7,5.19,5.19,0,0,0-4.46,2.6,5.28,5.28,0,0,0-.68,2.66,5,5,0,0,0,1.48,3.65,4.93,4.93,0,0,0,3.65,1.49,5.27,5.27,0,0,0,2.62-.68,4.89,4.89,0,0,0,1.88-1.87A5.31,5.31,0,0,0,209.38,210.07Z" transform="translate(-6.27 -9.73)"/><polygon class="cls-1" points="212.92 200.46 208.01 200.46 208.01 206.44 206.81 206.44 206.81 194.25 212.92 194.25 212.92 195.46 208.01 195.46 208.01 199.26 212.92 199.26 212.92 200.46"/><path class="cls-1" d="M238.32,214a6.61,6.61,0,0,1-11.91-4,6,6,0,0,1,1.92-4.56,6.54,6.54,0,0,1,4.66-1.77,6.17,6.17,0,0,1,5.33,2.57l-1,.74a5.21,5.21,0,0,0-4.36-2.1,5.42,5.42,0,0,0-2.66.68,4.89,4.89,0,0,0-2,1.88,5.2,5.2,0,0,0-.69,2.66,4.94,4.94,0,0,0,1.56,3.75,5.36,5.36,0,0,0,3.83,1.45,5.44,5.44,0,0,0,4.28-2Z" transform="translate(-6.27 -9.73)"/><path class="cls-1" d="M253.06,210.07a6.32,6.32,0,0,1-6.39,6.4,6.29,6.29,0,0,1-4.56-1.83,6.08,6.08,0,0,1-1.87-4.51,6.57,6.57,0,0,1,.84-3.24,6.27,6.27,0,0,1,5.5-3.21,6.37,6.37,0,0,1,4.62,1.81,6.15,6.15,0,0,1,1.88,4.58h0Zm-1.25,0a4.85,4.85,0,0,0-2.56-4.49,5.19,5.19,0,0,0-2.61-.7,5.2,5.2,0,0,0-4.46,2.6,5.29,5.29,0,0,0-.68,2.66,5,5,0,0,0,1.48,3.65,4.92,4.92,0,0,0,3.65,1.49,5.27,5.27,0,0,0,2.62-.68,4.88,4.88,0,0,0,1.88-1.87A5.29,5.29,0,0,0,251.81,210.07Z" transform="translate(-6.27 -9.73)"/><polygon class="cls-1" points="262.43 206.44 261.22 206.44 260.03 197.71 255.72 206.44 255.42 206.44 251.06 197.65 249.87 206.44 248.68 206.44 250.43 194.25 250.63 194.25 255.57 204.26 260.48 194.25 260.68 194.25 262.43 206.44"/><polygon class="cls-1" points="278.02 206.44 276.81 206.44 275.63 197.71 271.32 206.44 271.01 206.44 266.65 197.65 265.46 206.44 264.27 206.44 266.02 194.25 266.23 194.25 271.17 204.26 276.07 194.25 276.27 194.25 278.02 206.44"/><polygon class="cls-1" points="287.42 195.46 281.65 195.46 281.65 199.24 287.37 199.24 287.37 200.45 281.65 200.45 281.65 205.23 287.37 205.23 287.37 206.44 280.45 206.44 280.45 194.25 287.42 194.25 287.42 195.46"/><path class="cls-1" d="M303.67,216.17h-1.49l-4.41-5.67h-0.69v5.67h-1.2V204h2.43a15,15,0,0,1,2.75.17,3,3,0,0,1,2.45,3.07,2.88,2.88,0,0,1-1.83,2.88,6.15,6.15,0,0,1-2.42.4l4.41,5.67h0Zm-1.42-8.94a2,2,0,0,0-.32-1.1,1.84,1.84,0,0,0-.88-0.72,5.44,5.44,0,0,0-1.81-.22h-2.16v4.12l2.11,0c1.4,0,2.31-.31,2.74-1A2,2,0,0,0,302.24,207.22Z" transform="translate(-6.27 -9.73)"/><path class="cls-1" d="M317.45,214a6.61,6.61,0,0,1-11.91-4,6,6,0,0,1,1.92-4.56,6.54,6.54,0,0,1,4.66-1.77,6.17,6.17,0,0,1,5.33,2.57l-1,.74a5.21,5.21,0,0,0-4.36-2.1,5.44,5.44,0,0,0-2.66.68,4.9,4.9,0,0,0-2,1.88,5.23,5.23,0,0,0-.7,2.66,5,5,0,0,0,1.56,3.75,5.37,5.37,0,0,0,3.83,1.45,5.44,5.44,0,0,0,4.29-2Z" transform="translate(-6.27 -9.73)"/><rect class="cls-2" x="313.47" y="194.25" width="1.21" height="12.18"/><path class="cls-1" d="M334.4,216.17h-1.31l-1.92-4h-5.26l-1.9,4h-1.36L328.41,204h0.31l5.69,12.18h0ZM330.64,211l-2.08-4.41L326.47,211h4.17Z" transform="translate(-6.27 -9.73)"/><polygon class="cls-1" points="335.91 206.44 330.01 206.44 330.01 194.25 331.23 194.25 331.23 205.25 335.91 205.25 335.91 206.44"/><path class="cls-1" d="M357.65,216.17h-1.49l-4.41-5.67H351v5.67h-1.2V204h2.43a15,15,0,0,1,2.75.17,3,3,0,0,1,2.45,3.07,2.88,2.88,0,0,1-1.82,2.88,6.17,6.17,0,0,1-2.42.4l4.41,5.67h0Zm-1.42-8.94a2,2,0,0,0-.33-1.1,1.82,1.82,0,0,0-.88-0.72,5.42,5.42,0,0,0-1.81-.22H351v4.12l2.11,0c1.4,0,2.31-.31,2.74-1A2,2,0,0,0,356.22,207.22Z" transform="translate(-6.27 -9.73)"/><path class="cls-1" d="M372.37,210.07a6.32,6.32,0,0,1-6.39,6.4,6.3,6.3,0,0,1-4.56-1.83,6.07,6.07,0,0,1-1.87-4.51,6.57,6.57,0,0,1,.84-3.24,6.27,6.27,0,0,1,5.5-3.21,6.37,6.37,0,0,1,4.61,1.81,6.16,6.16,0,0,1,1.88,4.58h0Zm-1.25,0a4.85,4.85,0,0,0-2.56-4.49,5.19,5.19,0,0,0-2.61-.7,5.19,5.19,0,0,0-4.46,2.6,5.28,5.28,0,0,0-.68,2.66,5,5,0,0,0,1.48,3.65,4.93,4.93,0,0,0,3.65,1.49,5.27,5.27,0,0,0,2.62-.68,4.9,4.9,0,0,0,1.88-1.87A5.3,5.3,0,0,0,371.12,210.07Z" transform="translate(-6.27 -9.73)"/><path class="cls-1" d="M387.12,210.07a6.32,6.32,0,0,1-6.39,6.4,6.29,6.29,0,0,1-4.56-1.83,6.07,6.07,0,0,1-1.87-4.51,6.57,6.57,0,0,1,.84-3.24,6.27,6.27,0,0,1,5.5-3.21,6.36,6.36,0,0,1,4.61,1.81,6.15,6.15,0,0,1,1.88,4.58h0Zm-1.25,0a4.85,4.85,0,0,0-2.56-4.49,5.19,5.19,0,0,0-2.61-.7,5.19,5.19,0,0,0-4.46,2.6,5.28,5.28,0,0,0-.68,2.66,5,5,0,0,0,1.48,3.65,4.93,4.93,0,0,0,3.65,1.49,5.27,5.27,0,0,0,2.62-.68,4.87,4.87,0,0,0,1.88-1.87A5.29,5.29,0,0,0,385.87,210.07Z" transform="translate(-6.27 -9.73)"/><polygon class="cls-1" points="389.41 200.46 384.51 200.46 384.51 206.44 383.3 206.44 383.3 194.25 389.41 194.25 389.41 195.46 384.51 195.46 384.51 199.26 389.41 199.26 389.41 200.46"/><rect class="cls-2" x="391.38" y="194.25" width="1.2" height="12.18"/><polygon class="cls-1" points="404.95 206.44 404.67 206.44 396.64 197.22 396.64 206.44 395.38 206.44 395.38 194.25 395.65 194.25 403.75 203.59 403.75 194.25 404.95 194.25 404.95 206.44"/><path class="cls-1" d="M426.67,210.31A6.17,6.17,0,0,1,425,214.8a6,6,0,0,1-4.46,1.67,6.69,6.69,0,0,1-5.35-2.3,6.12,6.12,0,0,1-1.51-4.1,6.27,6.27,0,0,1,.87-3.22,6.2,6.2,0,0,1,2.39-2.33,7,7,0,0,1,3.44-.84A7.94,7.94,0,0,1,426,206l-0.95.89a6.44,6.44,0,0,0-4.61-2,5.57,5.57,0,0,0-2.71.7,5.08,5.08,0,0,0-2,1.91,5,5,0,0,0,0,5.19,5.3,5.3,0,0,0,2,1.91,5.87,5.87,0,0,0,2.86.71,5,5,0,0,0,3.12-1,4.11,4.11,0,0,0,1.61-2.8h-3.9v-1.19h5.26Z" transform="translate(-6.27 -9.73)"/></svg>