<?xml version="1.0" encoding="utf-8"?>
<!-- Generator: Adobe Illustrator 19.0.0, SVG Export Plug-In . SVG Version: 6.00 Build 0)  -->
<svg version="1.1" id="Layer_1" xmlns="http://www.w3.org/2000/svg" xmlns:xlink="http://www.w3.org/1999/xlink" x="0px" y="0px"
	 viewBox="0 0 432 227.3" style="enable-background:new 0 0 432 227.3;" xml:space="preserve">
<style type="text/css">
	.st0{fill-rule:evenodd;clip-rule:evenodd;fill:#FFFFFF;}
</style>
<polygon class="st0" points="82.7,104.7 77,106.9 82.7,109.1 88.3,106.9 "/>
<polygon class="st0" points="97.1,116.5 109.1,121.2 82.7,131.6 56.2,121.2 68.2,116.5 60.3,113.4 40.6,121.2 82.7,137.7 
	124.7,121.2 105,113.4 "/>
<polygon class="st0" points="82.7,85.7 77,87.9 82.7,90.1 88.3,87.9 "/>
<polygon class="st0" points="97.1,97.5 109.1,102.2 82.7,112.6 56.2,102.2 68.2,97.5 60.3,94.5 40.6,102.2 82.7,118.7 124.7,102.2 
	105,94.5 "/>
<polygon class="st0" points="82.7,66.7 77,68.9 82.7,71.1 88.3,68.9 "/>
<polygon class="st0" points="97.1,78.5 109.1,83.2 82.7,93.6 56.2,83.2 68.2,78.5 60.3,75.5 40.6,83.2 82.7,99.7 124.7,83.2 
	105,75.5 "/>
<polygon class="st0" points="82.7,47.7 77,49.9 82.7,52.1 88.3,49.9 "/>
<polygon class="st0" points="97.1,59.5 109.1,64.2 82.7,74.6 56.2,64.2 68.2,59.5 60.3,56.5 40.6,64.2 82.7,80.7 124.7,64.2 
	105,56.5 "/>
<path class="st0" d="M56.2,26.2l26.4,10.4l26.4-10.4L82.7,15.9L56.2,26.2L56.2,26.2z M82.7,42.8L40.6,26.2L82.7,9.7l42.1,16.5
	L82.7,42.8z"/>
<polygon class="st0" points="97.1,40.6 109.1,45.2 82.7,55.6 56.2,45.2 68.2,40.6 60.3,37.5 40.6,45.2 82.7,61.7 124.7,45.2 
	105,37.5 "/>
<polygon class="st0" points="82.7,28.7 77,30.9 82.7,33.1 88.3,30.9 "/>
<polygon class="st0" points="156.6,132.8 140.3,132.8 140.3,103 156.6,103 156.6,108.5 146,108.5 146,114 156.6,114 156.6,119.4 
	146,119.4 146,127.3 156.6,127.3 "/>
<polygon class="st0" points="184.8,103 174.1,132.8 168.6,132.8 158.1,103 163.9,103 171.4,124.2 179,103 "/>
<path class="st0" d="M217.3,118c0,4.3-1.5,8-4.4,11c-3,3-6.6,4.5-10.9,4.5c-4.4,0-8.1-1.5-11.1-4.5c-3-3-4.5-6.7-4.5-11.1
	c0-2.8,0.7-5.4,2-7.8c1.4-2.4,3.3-4.3,5.7-5.7c2.4-1.4,5-2.1,7.8-2.1c4.3,0,8,1.5,11,4.6C215.9,110,217.3,113.7,217.3,118L217.3,118
	z M211.7,118c0-2.8-0.9-5.2-2.8-7.2c-1.9-2-4.2-3-7-3c-2.9,0-5.2,1-7.1,3c-1.8,1.9-2.7,4.3-2.7,7.2c0,3.3,1.2,5.9,3.5,7.8
	c1.8,1.5,3.9,2.3,6.3,2.3c2.8,0,5.1-1,7-3C210.7,123.1,211.7,120.8,211.7,118z"/>
<polygon class="st0" points="235.1,132.8 221.1,132.8 221.1,103 226.8,103 226.8,127.4 235.1,127.4 "/>
<path class="st0" d="M257.8,120.8c0,2.5-0.1,4.2-0.3,5.1c-0.3,1.7-1,3.2-2.2,4.5c-1.9,2.1-4.4,3.2-7.6,3.2c-2,0-3.7-0.4-5.3-1.3
	c-1.7-0.9-3-2.3-3.7-3.9c-0.7-1.5-1-4-1-7.6V103h5.7v19.3c0,1.3,0.1,2.3,0.2,2.9c0.3,1,0.8,1.8,1.7,2.3c0.7,0.4,1.5,0.6,2.4,0.6
	c2.1,0,3.5-0.8,4.1-2.5c0.3-0.7,0.4-2.1,0.4-4.1V103h5.7V120.8z"/>
<polygon class="st0" points="276.3,108.6 270.9,108.6 270.9,132.8 265.2,132.8 265.2,108.6 260,108.6 260,103 276.3,103 "/>
<rect x="278.3" y="103" class="st0" width="5.6" height="29.8"/>
<path class="st0" d="M318.3,118c0,4.3-1.5,8-4.4,11c-3,3-6.6,4.5-10.9,4.5c-4.4,0-8.1-1.5-11.1-4.5c-3-3-4.5-6.7-4.5-11.1
	c0-2.8,0.7-5.4,2-7.8c1.4-2.4,3.3-4.3,5.7-5.7c2.4-1.4,5-2.1,7.8-2.1c4.3,0,8,1.5,11,4.6C316.8,110,318.3,113.7,318.3,118L318.3,118
	z M312.6,118c0-2.8-0.9-5.2-2.8-7.2c-1.9-2-4.2-3-7-3c-2.9,0-5.2,1-7.1,3c-1.8,1.9-2.7,4.3-2.7,7.2c0,3.3,1.2,5.9,3.5,7.8
	c1.8,1.5,3.9,2.3,6.3,2.3c2.8,0,5.1-1,7-3C311.7,123.1,312.6,120.8,312.6,118z"/>
<polygon class="st0" points="346,132.8 340.6,132.8 327.8,113.3 327.8,132.8 322.1,132.8 322.1,103 327.5,103 340.3,122.6 
	340.3,103 346,103 "/>
<path class="st0" d="M30.5,186.2v-41.1h30.3c7.1,0,11.4,0.1,12.8,0.2c1.4,0.1,2.8,0.6,4.1,1.4c1.6,0.9,2.6,2.3,3.2,3.9
	c0.6,1.7,0.9,4.3,0.9,7.8c0,3-0.2,5.2-0.6,6.6c-0.4,1.4-1.1,2.5-2.1,3.4c-1.1,0.9-2.8,1.5-5,1.9c2.6,0.2,4.5,1,5.7,2.3
	c0.7,0.8,1.1,1.7,1.3,2.8c0.2,1.1,0.3,3.4,0.3,7v3.8H69V184c0-2.3-0.1-3.9-0.3-4.9c-0.2-1-0.5-1.7-0.9-2.2c-0.5-0.5-1.1-0.8-1.9-0.9
	c-0.8-0.1-2.5-0.2-5.1-0.2H43v10.4H30.5L30.5,186.2z M43,165.5h17.6c3.1-0.1,4.9-0.1,5.5-0.2c0.6,0,1.1-0.2,1.5-0.5
	c0.5-0.3,0.9-0.8,1.1-1.5c0.2-0.7,0.3-1.7,0.3-3.1c0-1.3-0.1-2.3-0.4-3c-0.3-0.7-0.7-1.1-1.3-1.4c-0.4-0.2-1-0.3-1.6-0.4
	c-0.6,0-2.4-0.1-5.2-0.1H43V165.5z"/>
<path class="st0" d="M117.2,144.5c8.9,0,15,0.2,18.3,0.7c4.8,0.6,7.7,2.9,8.8,6.8c0.7,2.7,1.1,7.2,1.1,13.6c0,6.4-0.4,11-1.1,13.7
	c-1.1,3.9-4,6.2-8.8,6.8c-3.3,0.4-9.4,0.7-18.2,0.7c-9,0-15.1-0.2-18.4-0.7c-4.8-0.6-7.7-2.9-8.8-6.8c-0.7-2.7-1.1-7.3-1.1-13.9
	c0-6.3,0.4-10.7,1.1-13.4c1.1-3.9,4-6.2,8.8-6.8C102.2,144.7,108.3,144.5,117.2,144.5L117.2,144.5z M117.2,155.2
	c-6.7,0-10.7,0.2-12,0.5c-1.5,0.4-2.6,1.3-3,2.7c-0.5,1.4-0.7,4.2-0.7,8.3c0,2.5,0.1,4.3,0.4,5.5c0.5,2.1,2,3.3,4.6,3.6
	c1.9,0.2,5.5,0.4,10.9,0.4c5,0,8.4-0.1,10.1-0.3c1.7-0.2,2.9-0.6,3.7-1.2c0.7-0.6,1.2-1.4,1.5-2.5c0.3-1.1,0.4-2.9,0.4-5.4
	c0-3-0.1-5.1-0.3-6.5c-0.2-1.4-0.6-2.4-1.1-3.1c-0.7-0.9-1.8-1.4-3.3-1.6C126.7,155.3,123.1,155.2,117.2,155.2z"/>
<path class="st0" d="M181.4,144.5c8.9,0,15,0.2,18.3,0.7c4.8,0.6,7.7,2.9,8.8,6.8c0.7,2.7,1.1,7.2,1.1,13.6c0,6.4-0.4,11-1.1,13.7
	c-1.1,3.9-4,6.2-8.8,6.8c-3.3,0.4-9.4,0.7-18.2,0.7c-9,0-15.1-0.2-18.4-0.7c-4.8-0.6-7.7-2.9-8.8-6.8c-0.7-2.7-1.1-7.3-1.1-13.9
	c0-6.3,0.4-10.7,1.1-13.4c1.1-3.9,4-6.2,8.8-6.8C166.4,144.7,172.5,144.5,181.4,144.5L181.4,144.5z M181.4,155.2
	c-6.7,0-10.7,0.2-12,0.5c-1.5,0.4-2.6,1.3-3,2.7c-0.5,1.4-0.7,4.2-0.7,8.3c0,2.5,0.1,4.3,0.4,5.5c0.5,2.1,2,3.3,4.6,3.6
	c1.9,0.2,5.5,0.4,10.9,0.4c5,0,8.4-0.1,10.1-0.3c1.7-0.2,2.9-0.6,3.7-1.2c0.7-0.6,1.2-1.4,1.5-2.5c0.3-1.1,0.4-2.9,0.4-5.4
	c0-3-0.1-5.1-0.3-6.5c-0.2-1.4-0.6-2.4-1.1-3.1c-0.7-0.9-1.8-1.4-3.3-1.6C190.9,155.3,187.3,155.2,181.4,155.2z"/>
<polygon class="st0" points="218.2,145.1 261.7,145.1 261.7,154.8 230.7,154.8 230.7,162.5 260.2,162.5 260.2,172 230.7,172 
	230.7,186.2 218.2,186.2 "/>
<rect x="268.1" y="145.1" class="st0" width="13.1" height="41.1"/>
<polygon class="st0" points="290.7,145.1 312.6,145.1 334.2,175.8 335.5,175.8 335.2,145.1 347.9,145.1 347.9,186.2 326.1,186.2 
	304.5,155.5 303.1,155.5 303.4,186.2 290.7,186.2 "/>
<path class="st0" d="M382.2,162.9h28.6c0,0.7,0,1,0,1.1c0,5.8-0.2,10.2-0.5,13.1c-0.5,4.7-3.2,7.6-8.1,8.6c-2.1,0.4-4.5,0.7-7.2,0.9
	c-2.7,0.2-6.9,0.2-12.5,0.2c-7.1,0-12-0.2-15-0.6c-2.9-0.4-5.3-1.1-7-2.3c-1.2-0.8-2.1-1.8-2.7-3c-0.6-1.2-1-2.8-1.3-4.9
	c-0.2-1.9-0.4-5.6-0.4-11.1c0-3.8,0.1-6.6,0.3-8.5c0.2-1.9,0.6-3.6,1.2-5.1c1.2-3.2,3.7-5.1,7.6-5.8c4.2-0.7,10.7-1.1,19.4-1.1
	c5.2,0,9.3,0.1,12.3,0.4c3,0.3,5.5,0.7,7.4,1.3c3.2,1,5.1,3.1,5.7,6.4c0.3,1.6,0.5,3.8,0.5,6.7h-12.5c0-1.1-0.1-1.9-0.2-2.3
	c-0.1-0.4-0.4-0.8-0.8-1c-0.7-0.5-2.2-0.8-4.4-0.9c-2.1-0.1-5.2-0.2-9.2-0.2c-4.3,0-7.4,0.1-9.3,0.3c-1.8,0.2-3.1,0.6-3.8,1.1
	c-0.7,0.6-1.1,1.5-1.4,2.7c-0.2,1.3-0.4,3.4-0.4,6.5c0,3.5,0.1,5.9,0.4,7.2c0.2,1.4,0.7,2.3,1.4,2.9c0.7,0.5,1.6,0.9,2.7,1
	c1.1,0.1,4.5,0.2,10.4,0.3c5.7,0,9.2-0.1,10.4-0.2c1.2-0.1,2.2-0.3,2.9-0.6c0.6-0.3,1-0.7,1.3-1.3c0.3-0.6,0.4-1.5,0.4-2.7
	c0-0.2,0-0.6,0-1.1h-16.5V162.9z"/>
<polygon class="st0" points="13,205.2 10.2,205.2 10.2,216.2 9,216.2 9,205.2 6.3,205.2 6.3,204 13,204 "/>
<polygon class="st0" points="23.3,216.2 22.1,216.2 22.1,210.3 15.9,210.3 15.9,216.2 14.7,216.2 14.7,204 15.9,204 15.9,209.1 
	22.1,209.1 22.1,204 23.3,204 "/>
<polygon class="st0" points="33.3,205.2 27.5,205.2 27.5,209 33.2,209 33.2,210.2 27.5,210.2 27.5,215 33.2,215 33.2,216.2 
	26.3,216.2 26.3,204 33.3,204 "/>
<polygon class="st0" points="50.6,216.2 50.3,216.2 42.3,207 42.3,216.2 41.1,216.2 41.1,204 41.3,204 49.4,213.3 49.4,204 
	50.6,204 "/>
<polygon class="st0" points="60.6,205.2 54.8,205.2 54.8,209 60.5,209 60.5,210.2 54.8,210.2 54.8,215 60.5,215 60.5,216.2 
	53.6,216.2 53.6,204 60.6,204 "/>
<polygon class="st0" points="71,216.2 69.6,216.2 66.4,211.1 63.2,216.2 61.8,216.2 65.7,209.9 62.1,204 63.5,204 66.4,208.7 
	69.3,204 70.8,204 67.1,209.9 "/>
<polygon class="st0" points="78.5,205.2 75.8,205.2 75.8,216.2 74.6,216.2 74.6,205.2 71.8,205.2 71.8,204 78.5,204 "/>
<path class="st0" d="M98.4,210.3c0,1.9-0.6,3.4-1.7,4.5c-1.1,1.1-2.6,1.7-4.5,1.7c-2.3,0-4-0.8-5.4-2.3c-1-1.2-1.5-2.5-1.5-4.1
	c0-1.2,0.3-2.2,0.9-3.2c0.6-1,1.4-1.8,2.4-2.3c1-0.6,2.2-0.8,3.4-0.8c2.1,0,3.9,0.8,5.6,2.3l-0.9,0.9c-1.4-1.4-2.9-2-4.6-2
	c-1,0-1.9,0.2-2.7,0.7c-0.9,0.5-1.6,1.1-2,1.9c-0.5,0.8-0.7,1.7-0.7,2.5c0,0.9,0.3,1.8,0.8,2.6c0.5,0.8,1.2,1.4,2,1.9
	c0.9,0.5,1.8,0.7,2.9,0.7c1.2,0,2.3-0.3,3.1-1c0.9-0.7,1.4-1.6,1.6-2.8h-3.9v-1.2H98.4z"/>
<polygon class="st0" points="107.7,205.2 101.9,205.2 101.9,209 107.7,209 107.7,210.2 101.9,210.2 101.9,215 107.7,215 
	107.7,216.2 100.7,216.2 100.7,204 107.7,204 "/>
<polygon class="st0" points="119.4,216.2 119.1,216.2 111.1,207 111.1,216.2 109.8,216.2 109.8,204 110.1,204 118.2,213.3 
	118.2,204 119.4,204 "/>
<polygon class="st0" points="129.4,205.2 123.6,205.2 123.6,209 129.3,209 129.3,210.2 123.6,210.2 123.6,215 129.3,215 
	129.3,216.2 122.4,216.2 122.4,204 129.4,204 "/>
<path class="st0" d="M139.3,216.2h-1.5l-4.4-5.7h-0.7v5.7h-1.2V204h2.4c1.4,0,2.3,0.1,2.8,0.2c0.8,0.2,1.3,0.5,1.8,1.1
	c0.4,0.6,0.7,1.2,0.7,2c0,1.4-0.6,2.3-1.8,2.9c-0.6,0.3-1.4,0.4-2.4,0.4L139.3,216.2L139.3,216.2z M137.9,207.2
	c0-0.4-0.1-0.8-0.3-1.1c-0.2-0.3-0.5-0.6-0.9-0.7c-0.4-0.1-1-0.2-1.8-0.2h-2.2v4.1l2.1,0c1.4,0,2.3-0.3,2.7-1
	C137.8,208,137.9,207.6,137.9,207.2z"/>
<path class="st0" d="M152.4,216.2h-1.3l-1.9-4H144l-1.9,4h-1.4l5.8-12.2h0.3L152.4,216.2L152.4,216.2z M148.7,211l-2.1-4.4l-2.1,4.4
	H148.7z"/>
<polygon class="st0" points="159.8,205.2 157.1,205.2 157.1,216.2 155.8,216.2 155.8,205.2 153.1,205.2 153.1,204 159.8,204 "/>
<rect x="161.4" y="204" class="st0" width="1.2" height="12.2"/>
<path class="st0" d="M177.7,210.1c0,1.8-0.6,3.3-1.9,4.5c-1.2,1.2-2.7,1.9-4.5,1.9c-1.8,0-3.3-0.6-4.6-1.8c-1.2-1.2-1.9-2.7-1.9-4.5
	c0-1.2,0.3-2.2,0.8-3.2c0.6-1,1.3-1.8,2.3-2.4c1-0.6,2-0.8,3.2-0.8c1.8,0,3.4,0.6,4.6,1.8C177,206.7,177.7,208.2,177.7,210.1
	L177.7,210.1z M176.4,210.1c0-2-0.9-3.5-2.6-4.5c-0.8-0.5-1.7-0.7-2.6-0.7c-0.9,0-1.8,0.2-2.6,0.7c-0.8,0.5-1.4,1.1-1.9,1.9
	c-0.5,0.8-0.7,1.7-0.7,2.7c0,1.4,0.5,2.7,1.5,3.7c1,1,2.2,1.5,3.7,1.5c0.9,0,1.8-0.2,2.6-0.7c0.8-0.5,1.4-1.1,1.9-1.9
	C176.2,211.9,176.4,211,176.4,210.1z"/>
<polygon class="st0" points="189.7,216.2 189.4,216.2 181.4,207 181.4,216.2 180.1,216.2 180.1,204 180.4,204 188.5,213.3 
	188.5,204 189.7,204 "/>
<path class="st0" d="M210.6,210.1c0,1.8-0.6,3.3-1.8,4.5c-1.2,1.2-2.7,1.9-4.5,1.9c-1.8,0-3.3-0.6-4.6-1.8c-1.2-1.2-1.9-2.7-1.9-4.5
	c0-1.2,0.3-2.2,0.8-3.2c0.6-1,1.3-1.8,2.3-2.4c1-0.6,2-0.8,3.2-0.8c1.8,0,3.4,0.6,4.6,1.8C210,206.7,210.6,208.2,210.6,210.1
	L210.6,210.1z M209.4,210.1c0-2-0.9-3.5-2.6-4.5c-0.8-0.5-1.7-0.7-2.6-0.7c-0.9,0-1.8,0.2-2.6,0.7c-0.8,0.5-1.4,1.1-1.9,1.9
	c-0.5,0.8-0.7,1.7-0.7,2.7c0,1.4,0.5,2.7,1.5,3.7c1,1,2.2,1.5,3.7,1.5c0.9,0,1.8-0.2,2.6-0.7c0.8-0.5,1.4-1.1,1.9-1.9
	C209.1,211.9,209.4,211,209.4,210.1z"/>
<polygon class="st0" points="219.2,210.2 214.3,210.2 214.3,216.2 213.1,216.2 213.1,204 219.2,204 219.2,205.2 214.3,205.2 
	214.3,209 219.2,209 "/>
<path class="st0" d="M238.3,214c-1.3,1.6-3,2.4-5.3,2.4c-2.1,0-3.8-0.7-5-2.1c-1-1.2-1.6-2.6-1.6-4.3c0-1.8,0.6-3.4,1.9-4.6
	c1.3-1.2,2.8-1.8,4.7-1.8c2.3,0,4.1,0.9,5.3,2.6l-1,0.7c-1.1-1.4-2.5-2.1-4.4-2.1c-1,0-1.8,0.2-2.7,0.7c-0.8,0.5-1.5,1.1-2,1.9
	c-0.5,0.8-0.7,1.7-0.7,2.7c0,1.5,0.5,2.8,1.6,3.8c1,1,2.3,1.4,3.8,1.4c1.7,0,3.1-0.7,4.3-2L238.3,214z"/>
<path class="st0" d="M253.1,210.1c0,1.8-0.6,3.3-1.8,4.5c-1.2,1.2-2.7,1.9-4.5,1.9c-1.8,0-3.3-0.6-4.6-1.8c-1.2-1.2-1.9-2.7-1.9-4.5
	c0-1.2,0.3-2.2,0.8-3.2c0.6-1,1.3-1.8,2.3-2.4c1-0.6,2-0.8,3.2-0.8c1.8,0,3.4,0.6,4.6,1.8C252.4,206.7,253.1,208.2,253.1,210.1
	L253.1,210.1z M251.8,210.1c0-2-0.9-3.5-2.6-4.5c-0.8-0.5-1.7-0.7-2.6-0.7c-0.9,0-1.8,0.2-2.6,0.7c-0.8,0.5-1.4,1.1-1.9,1.9
	c-0.5,0.8-0.7,1.7-0.7,2.7c0,1.4,0.5,2.7,1.5,3.7c1,1,2.2,1.5,3.7,1.5c0.9,0,1.8-0.2,2.6-0.7c0.8-0.5,1.4-1.1,1.9-1.9
	C251.6,211.9,251.8,211,251.8,210.1z"/>
<polygon class="st0" points="268.7,216.2 267.5,216.2 266.3,207.4 262,216.2 261.7,216.2 257.3,207.4 256.1,216.2 254.9,216.2 
	256.7,204 256.9,204 261.8,214 266.7,204 266.9,204 "/>
<polygon class="st0" points="284.3,216.2 283.1,216.2 281.9,207.4 277.6,216.2 277.3,216.2 272.9,207.4 271.7,216.2 270.5,216.2 
	272.3,204 272.5,204 277.4,214 282.3,204 282.5,204 "/>
<polygon class="st0" points="293.7,205.2 287.9,205.2 287.9,209 293.6,209 293.6,210.2 287.9,210.2 287.9,215 293.6,215 
	293.6,216.2 286.7,216.2 286.7,204 293.7,204 "/>
<path class="st0" d="M303.7,216.2h-1.5l-4.4-5.7h-0.7v5.7h-1.2V204h2.4c1.4,0,2.3,0.1,2.8,0.2c0.8,0.2,1.3,0.5,1.8,1.1
	c0.4,0.6,0.7,1.2,0.7,2c0,1.4-0.6,2.3-1.8,2.9c-0.6,0.3-1.4,0.4-2.4,0.4L303.7,216.2L303.7,216.2z M302.2,207.2
	c0-0.4-0.1-0.8-0.3-1.1c-0.2-0.3-0.5-0.6-0.9-0.7c-0.4-0.1-1-0.2-1.8-0.2h-2.2v4.1l2.1,0c1.4,0,2.3-0.3,2.7-1
	C302.1,208,302.2,207.6,302.2,207.2z"/>
<path class="st0" d="M317.4,214c-1.3,1.6-3,2.4-5.3,2.4c-2.1,0-3.8-0.7-5-2.1c-1-1.2-1.5-2.6-1.5-4.3c0-1.8,0.6-3.4,1.9-4.6
	c1.3-1.2,2.8-1.8,4.7-1.8c2.3,0,4.1,0.9,5.3,2.6l-1,0.7c-1.1-1.4-2.5-2.1-4.4-2.1c-0.9,0-1.8,0.2-2.7,0.7c-0.8,0.5-1.5,1.1-2,1.9
	c-0.5,0.8-0.7,1.7-0.7,2.7c0,1.5,0.5,2.8,1.6,3.8c1,1,2.3,1.4,3.8,1.4c1.7,0,3.1-0.7,4.3-2L317.4,214z"/>
<rect x="319.7" y="204" class="st0" width="1.2" height="12.2"/>
<path class="st0" d="M334.4,216.2h-1.3l-1.9-4h-5.3l-1.9,4h-1.4l5.8-12.2h0.3L334.4,216.2L334.4,216.2z M330.6,211l-2.1-4.4
	l-2.1,4.4H330.6z"/>
<polygon class="st0" points="342.2,216.2 336.3,216.2 336.3,204 337.5,204 337.5,215 342.2,215 "/>
<path class="st0" d="M357.6,216.2h-1.5l-4.4-5.7H351v5.7h-1.2V204h2.4c1.4,0,2.3,0.1,2.8,0.2c0.8,0.2,1.3,0.5,1.8,1.1
	c0.4,0.6,0.7,1.2,0.7,2c0,1.4-0.6,2.3-1.8,2.9c-0.6,0.3-1.4,0.4-2.4,0.4L357.6,216.2L357.6,216.2z M356.2,207.2
	c0-0.4-0.1-0.8-0.3-1.1c-0.2-0.3-0.5-0.6-0.9-0.7c-0.4-0.1-1-0.2-1.8-0.2H351v4.1l2.1,0c1.4,0,2.3-0.3,2.7-1
	C356.1,208,356.2,207.6,356.2,207.2z"/>
<path class="st0" d="M372.4,210.1c0,1.8-0.6,3.3-1.8,4.5c-1.2,1.2-2.7,1.9-4.5,1.9c-1.8,0-3.3-0.6-4.6-1.8c-1.2-1.2-1.9-2.7-1.9-4.5
	c0-1.2,0.3-2.2,0.8-3.2c0.6-1,1.3-1.8,2.3-2.4c1-0.6,2-0.8,3.2-0.8c1.8,0,3.4,0.6,4.6,1.8C371.7,206.7,372.4,208.2,372.4,210.1
	L372.4,210.1z M371.1,210.1c0-2-0.9-3.5-2.6-4.5c-0.8-0.5-1.7-0.7-2.6-0.7c-0.9,0-1.8,0.2-2.6,0.7c-0.8,0.5-1.4,1.1-1.9,1.9
	c-0.5,0.8-0.7,1.7-0.7,2.7c0,1.4,0.5,2.7,1.5,3.7c1,1,2.2,1.5,3.7,1.5c0.9,0,1.8-0.2,2.6-0.7c0.8-0.5,1.4-1.1,1.9-1.9
	C370.9,211.9,371.1,211,371.1,210.1z"/>
<path class="st0" d="M387.1,210.1c0,1.8-0.6,3.3-1.8,4.5c-1.2,1.2-2.7,1.9-4.5,1.9c-1.8,0-3.3-0.6-4.6-1.8c-1.2-1.2-1.9-2.7-1.9-4.5
	c0-1.2,0.3-2.2,0.8-3.2c0.6-1,1.3-1.8,2.3-2.4c1-0.6,2-0.8,3.2-0.8c1.8,0,3.4,0.6,4.6,1.8C386.5,206.7,387.1,208.2,387.1,210.1
	L387.1,210.1z M385.9,210.1c0-2-0.9-3.5-2.6-4.5c-0.8-0.5-1.7-0.7-2.6-0.7c-0.9,0-1.8,0.2-2.6,0.7c-0.8,0.5-1.4,1.1-1.9,1.9
	c-0.5,0.8-0.7,1.7-0.7,2.7c0,1.4,0.5,2.7,1.5,3.7c1,1,2.2,1.5,3.7,1.5c0.9,0,1.8-0.2,2.6-0.7c0.8-0.5,1.4-1.1,1.9-1.9
	C385.6,211.9,385.9,211,385.9,210.1z"/>
<polygon class="st0" points="395.7,210.2 390.8,210.2 390.8,216.2 389.6,216.2 389.6,204 395.7,204 395.7,205.2 390.8,205.2 
	390.8,209 395.7,209 "/>
<rect x="397.6" y="204" class="st0" width="1.2" height="12.2"/>
<polygon class="st0" points="411.2,216.2 410.9,216.2 402.9,207 402.9,216.2 401.7,216.2 401.7,204 401.9,204 410,213.3 410,204 
	411.2,204 "/>
<path class="st0" d="M426.7,210.3c0,1.9-0.6,3.4-1.7,4.5c-1.1,1.1-2.6,1.7-4.5,1.7c-2.3,0-4-0.8-5.4-2.3c-1-1.2-1.5-2.5-1.5-4.1
	c0-1.2,0.3-2.2,0.9-3.2c0.6-1,1.4-1.8,2.4-2.3c1-0.6,2.2-0.8,3.4-0.8c2.1,0,3.9,0.8,5.6,2.3l-0.9,0.9c-1.4-1.4-2.9-2-4.6-2
	c-1,0-1.9,0.2-2.7,0.7c-0.9,0.5-1.6,1.1-2,1.9c-0.5,0.8-0.7,1.7-0.7,2.5c0,0.9,0.3,1.8,0.8,2.6c0.5,0.8,1.2,1.4,2,1.9
	c0.9,0.5,1.8,0.7,2.9,0.7c1.2,0,2.3-0.3,3.1-1c0.9-0.7,1.4-1.6,1.6-2.8h-3.9v-1.2H426.7z"/>
</svg>
